<svg xmlns="http://www.w3.org/2000/svg" viewBox="0 0 512 512">
  <defs>
    <linearGradient id="ring" x1="0%" y1="0%" x2="100%" y2="100%">
      <stop offset="0%" stop-color="#7cc8f4" />
      <stop offset="100%" stop-color="#2da7ef" />
    </linearGradient>
  </defs>
  <circle cx="256" cy="256" r="256" fill="url(#ring)" />
  <circle cx="246" cy="256" r="225" fill="#3a9bdc" />
  <path
    d="M184 140c0-10 7-19 18-23 19-7 30 1 36 15l36 84 36-84c6-14 17-22 36-15 11 4 18 13 18 23v234c0 15-10 25-24 25s-24-10-24-25V232l-20 50c-4 10-11 18-22 18s-18-8-22-18l-20-50v142c0 15-10 25-24 25s-24-10-24-25V140z"
    fill="#f4f4f4"
  />
</svg>
